<svg width="195" height="21" viewBox="0 0 195 21" fill="none" xmlns="http://www.w3.org/2000/svg">
<path d="M54.8905 17.1174C51.5444 17.1174 49.2412 15.0386 49.2412 11.6339C49.2412 8.22569 51.541 6.15039 54.8905 6.15039C58.2365 6.15039 60.5363 8.22569 60.5363 11.6339C60.5397 15.0421 58.2365 17.1174 54.8905 17.1174ZM54.8905 8.24296C52.9015 8.24296 51.5272 9.73814 51.5272 11.6339C51.5272 13.5918 52.9015 15.011 54.8905 15.011C56.9209 15.011 58.2503 13.578 58.2503 11.6339C58.2538 9.72088 56.9243 8.24296 54.8905 8.24296Z" fill="black"/>
<path d="M74.9635 16.8654H72.3772L69.7045 13.4296H68.0159V16.8654H65.6851V6.40601H70.6437C73.1679 6.40601 74.5146 8.09456 74.5146 9.93161C74.5008 11.2921 74.0968 12.5007 72.094 13.219L74.9635 16.6859V16.8654ZM68.0159 8.40879V11.4579H70.6748C71.7487 11.4579 72.2148 10.6498 72.2148 9.99376C72.201 9.27552 71.7349 8.40879 70.6471 8.40879H68.0159Z" fill="black"/>
<path d="M82.8816 6.40601V14.728H88.1131V16.8654H80.5508V6.40601H82.8816Z" fill="black"/>
<path d="M97.8366 6.40601C101.438 6.40601 103.037 8.82662 103.037 11.5615C103.037 14.2963 101.497 16.8654 97.8366 16.8654H93.5479V6.40601H97.8366ZM95.8511 14.7141H97.8366C100.109 14.7141 100.734 13.0394 100.734 11.5304C100.734 10.0214 100.015 8.51239 97.8366 8.51239H95.8511V14.7141Z" fill="black"/>
<path d="M125.51 9.60355L122.281 13.6678H121.864L118.742 9.57246V16.8792H116.411V6.4198H119.084L122.133 10.4392L125.196 6.4198H127.841V16.8792H125.51V9.60355Z" fill="black"/>
<path d="M139.253 17.1174C135.907 17.1174 133.604 15.0386 133.604 11.6339C133.604 8.22569 135.904 6.15039 139.253 6.15039C142.599 6.15039 144.899 8.22569 144.899 11.6339C144.903 15.0421 142.603 17.1174 139.253 17.1174ZM139.253 8.24296C137.264 8.24296 135.89 9.73814 135.89 11.6339C135.89 13.5918 137.264 15.011 139.253 15.011C141.284 15.011 142.613 13.578 142.613 11.6339C142.617 9.72088 141.287 8.24296 139.253 8.24296Z" fill="black"/>
<path d="M155.617 6.40601C157.603 6.40601 159.247 7.30381 159.247 9.24445C159.247 10.1112 158.86 10.9192 157.858 11.3819C159.188 11.8584 159.74 13.2051 159.516 14.4137C159.202 16.1023 157.796 16.8654 155.707 16.8654H150.462V6.40601H155.617ZM152.748 10.4703H155.586C156.498 10.4703 156.947 10.0974 156.947 9.48271C156.947 8.87151 156.498 8.42261 155.617 8.42261H152.748V10.4703V10.4703ZM152.748 14.8315H155.617C156.664 14.8315 157.157 14.3688 157.157 13.6368C157.157 12.9047 156.619 12.4109 155.59 12.4109H152.751V14.8315H152.748Z" fill="black"/>
<path d="M167.468 6.40601H165.151V16.8654H167.468V6.40601Z" fill="black"/>
<path d="M176.371 6.40601V14.728H181.599V16.8654H174.04V6.40601H176.371Z" fill="black"/>
<path d="M195 16.8654H187.037V6.40601H194.793V8.54347H189.323V10.5601H194.479V12.6043H189.323V14.7141H195V16.8654Z" fill="black"/>
<path d="M42.2801 16.8482H40.3706L38.1295 11.009L35.961 16.8482H34.0479L30.1494 6.40601H32.7634L34.0652 9.9765L35.0045 13.3536L37.3526 6.40601H38.8754L41.3271 13.3536L42.2214 9.99032L43.4611 6.40601H46.0751L42.2801 16.8482Z" fill="white"/>
<path d="M54.8905 17.1174C51.5444 17.1174 49.2412 15.0386 49.2412 11.6339C49.2412 8.22569 51.541 6.15039 54.8905 6.15039C58.2365 6.15039 60.5363 8.22569 60.5363 11.6339C60.5397 15.0421 58.2365 17.1174 54.8905 17.1174ZM54.8905 8.24296C52.9015 8.24296 51.5272 9.73814 51.5272 11.6339C51.5272 13.5918 52.9015 15.011 54.8905 15.011C56.9209 15.011 58.2503 13.578 58.2503 11.6339C58.2538 9.72088 56.9243 8.24296 54.8905 8.24296Z" fill="white"/>
<path d="M74.9635 16.8654H72.3772L69.7045 13.4296H68.0159V16.8654H65.6851V6.40601H70.6437C73.1679 6.40601 74.5146 8.09456 74.5146 9.93161C74.5008 11.2921 74.0968 12.5007 72.094 13.219L74.9635 16.6859V16.8654ZM68.0159 8.40879V11.4579H70.6748C71.7487 11.4579 72.2148 10.6498 72.2148 9.99376C72.201 9.27552 71.7349 8.40879 70.6471 8.40879H68.0159Z" fill="white"/>
<path d="M82.8816 6.40601V14.728H88.1131V16.8654H80.5508V6.40601H82.8816Z" fill="white"/>
<path d="M97.8366 6.40601C101.438 6.40601 103.037 8.82662 103.037 11.5615C103.037 14.2963 101.497 16.8654 97.8366 16.8654H93.5479V6.40601H97.8366ZM95.8511 14.7141H97.8366C100.109 14.7141 100.734 13.0394 100.734 11.5304C100.734 10.0214 100.015 8.51239 97.8366 8.51239H95.8511V14.7141Z" fill="white"/>
<path d="M125.51 9.60355L122.281 13.6678H121.864L118.742 9.57246V16.8792H116.411V6.4198H119.084L122.133 10.4392L125.196 6.4198H127.841V16.8792H125.51V9.60355Z" fill="white"/>
<path d="M139.253 17.1174C135.907 17.1174 133.604 15.0386 133.604 11.6339C133.604 8.22569 135.904 6.15039 139.253 6.15039C142.599 6.15039 144.899 8.22569 144.899 11.6339C144.903 15.0421 142.603 17.1174 139.253 17.1174ZM139.253 8.24296C137.264 8.24296 135.89 9.73814 135.89 11.6339C135.89 13.5918 137.264 15.011 139.253 15.011C141.284 15.011 142.613 13.578 142.613 11.6339C142.617 9.72088 141.287 8.24296 139.253 8.24296Z" fill="white"/>
<path d="M155.617 6.40601C157.603 6.40601 159.247 7.30381 159.247 9.24445C159.247 10.1112 158.86 10.9192 157.858 11.3819C159.188 11.8584 159.74 13.2051 159.516 14.4137C159.202 16.1023 157.796 16.8654 155.707 16.8654H150.462V6.40601H155.617ZM152.748 10.4703H155.586C156.498 10.4703 156.947 10.0974 156.947 9.48271C156.947 8.87151 156.498 8.42261 155.617 8.42261H152.748V10.4703V10.4703ZM152.748 14.8315H155.617C156.664 14.8315 157.157 14.3688 157.157 13.6368C157.157 12.9047 156.619 12.4109 155.59 12.4109H152.751V14.8315H152.748Z" fill="white"/>
<path d="M167.468 6.40601H165.151V16.8654H167.468V6.40601Z" fill="white"/>
<path d="M176.371 6.40601V14.728H181.599V16.8654H174.04V6.40601H176.371Z" fill="white"/>
<path d="M195 16.8654H187.037V6.40601H194.793V8.54347H189.323V10.5601H194.479V12.6043H189.323V14.7141H195V16.8654Z" fill="white"/>
<path d="M12.2209 8.42224C12.2209 8.42224 11.4716 13.9783 12.6076 15.8775L11.0192 20.3527C11.0192 20.3527 10.2802 19.7829 9.07511 17.2587C8.75052 16.3816 11.1262 9.23026 12.2209 8.42224Z" fill="#2C1B55"/>
<path d="M17.8083 3.24271C19.8249 1.41948 22.1937 0.884256 24.4797 0.918786C24.4797 0.918786 23.1986 3.09078 20.2186 13.6089C18.2917 20.4115 13.9512 22.0551 11.0195 20.3562C11.0195 20.3562 13.5368 12.7732 14.117 10.9189C14.7247 8.98175 15.695 5.15227 17.8083 3.24271Z" fill="#532C7C"/>
<path d="M4.55852 5.54944C4.55852 5.54944 0.621998 6.77873 0.104034 10.2353C-0.482992 14.1338 1.55433 18.6643 2.71111 19.9661L4.68974 16.2057C4.68974 16.2057 3.39483 12.4314 4.55852 5.54944Z" fill="#F38220"/>
<path d="M8.64732 5.38356C10.3946 3.80205 12.6115 2.8041 14.5935 2.83518C14.5935 2.83518 12.6771 6.82696 10.6398 14.1164C9.15493 19.4376 5.24948 21.437 2.70801 19.9625C2.70801 19.9625 4.89036 13.3947 5.39106 11.7856C5.91938 10.1143 6.81718 7.04105 8.64732 5.38356Z" fill="#D01B6C"/>
</svg>
